<svg xmlns="http://www.w3.org/2000/svg" width="323" height="313" viewBox="0 0 323 313">
    <g fill="none" fill-rule="evenodd">
        <path fill="#EDB174" d="M83.002 20.015c0-.797.238-1.355.685-2.015 1.033.897 2.65 5.346 4.371 2.474.342-.571.358-2.699 1.532-2.035.552.311.4 1.813.362 2.322-.14 1.812-.963 4.34-3.3 4.236-2.385-.105-3.714-3-3.65-4.982M85.12 15.91c-3.541.671-2.128-2.606.466-2.878.962-.1 2.62-.048 2.393 1.413-.202 1.292-1.923 1.287-2.858 1.464M74.269 26.994c-1.338.127-3.543-1.76-1.32-1.99 1.025-.106 3.18 1.813 1.32 1.99M276.665 44.868c-.897.69-3.584-1.529-4.463-1.92-3.422-1.528-7.355-2.372-11.032-3.03-7.278-1.304-14.739-2.038-22.13-2.271a93.331 93.331 0 0 0-13.233.498c-1.11.12-8.62 1.379-8.803-.69-.323-3.63 19.542-3.458 21.433-3.452 8.6.03 16.368.989 24.722 2.871 2.26.51 16.157 5.955 13.506 7.994M40.926 102.17c-4.571 1.31-9.787 1.131-14.076-.978-.737-.363-2.528-1.133-1.58-2.038 1.022-.973 3.88.678 4.994.89 5.402 1.026 12.252-1.008 16.08-4.823 1.899-1.893 2.97-4.285 3.423-6.862.258-1.469.39-3.023.297-4.513-.097-1.578-.764-3.275-.318-4.846 1.993 1.144 2.016 4.157 2.158 6.103.18 2.453.164 4.812-.548 7.202-1.464 4.921-5.396 8.424-10.43 9.865"/>
        <path fill="#FFF" d="M1.499 239.371l.434 1.16c.605-1.115.605-1.115-.434-1.16m5.646 29.097c2.247 1.04 4.75-1.753 5.946-3.308 1.994-2.593 2.88-5.582 3.667-8.704.87-3.454 1.874-6.869 2.682-10.339.36-1.547.703-3.1 1.107-4.636.335-1.272 1.581-3.537 1.057-4.858-.887-2.233-5.245-2.847-4.948-5.842.273-2.752 5.068.187 6.219.77 2.63 1.335 1.262-.349-.008-1.324-.963-.74-5.44-3.94-3.097-5.555 1.521-1.048 4.83 2.143 6.091 2.731 1.324.617 1.807.455 2.88-.632.764-.775 1.899-1.754 2.489-2.642 1.458-2.195-.495-6.497-.795-9.011-.067-.56.353-3.627-.037-3.99-.514-.477-2.711-.141-3.519-.263-2.896-.436-5.754-.765-8.655-1.127-1.916-.24-7.616-1.685-8.744.305-.895 1.578-.608 4.607-.609 6.294-.001 3.552-.012 7.028-.348 10.59-.733 7.782-1.283 15.559-1.99 23.34-.343 3.777-1.052 7.51-1.408 11.287-.221 2.341-.57 5.717 2.02 6.914m43.63-57.464c2.127 5.328 3.887 10.816 5.728 16.247.85 2.51 1.636 5.046 2.5 7.552.826 2.4 2.157 4.562 2.84 7.018 1.287 4.636 2.371 9.24 3.897 13.798.22.656.09 2.11.485 2.573.485.57 2.63.485 3.39.581 3.107.392 6.246.694 9.38.563-2.933-3.704-6.223-7.104-9.596-10.416-2.954-2.9-6.943-6.194-7.424-10.613-.64-5.872 5.48-4.692 9.286-4.336 5.31.497 11.33 2.652 16.645 1.457-3.684-4.988-9.267-8.707-13.892-12.768-1.803-1.584-3.7-3.324-4.622-5.602-.469-1.162-.702-2.5-.384-3.734.387-1.497 1.245-1.769 2.49-2.476-7.379 0-14.84-.264-21.869-2.8-.279 1.178.75 1.966 1.146 2.956m32.985 47.058c1.289 1.754 3.61 1.276 5.52 1.166a58.704 58.704 0 0 0 8.357-1.067c2.78-.569 5.568-1.33 8.22-2.35.558-.214 2.294-.704 2.498-1.376.186-.609-.885-1.856-1.119-2.32-.743-1.484-1.112-4.128.568-5.186 1.387-.874 3.435.001 4.835.414 2.072.612 4.544 1.847 6.648.907 2.686-1.199 5.345-2.923 7.87-4.432-4.56-4.15-9.04-8.382-13.717-12.403-4.284-3.684-9.444-7.924-12.122-12.999-1.008-1.911-1.661-4.62-.424-6.61 1.108-1.786 3.344-1.849 5.229-1.685 5.599.486 11.114 1.878 16.622 2.917 1.854.35 13.782 3.12 13.814.107.007-.65-1.229-2.131-1.545-2.648a82.208 82.208 0 0 0-2.222-3.467c-1.805-2.645-3.766-5.177-5.71-7.719-.982-1.282-2.236-3.954-4.115-3.67-.857.13-1.715 1.085-2.406 1.58a45.464 45.464 0 0 1-3.693 2.372c-5.125 2.96-10.783 4.462-16.485 5.858-1.292.316-7.466.953-8.073 2.23-.302.637.395 2.144.413 2.833.027 1.04-.202 2.117-.771 2.997-1.655 2.553-5.272 2.419-7.935 2.343-3.384-.096-6.85-.263-10.217.15 3.35 3.106 6.828 6.07 10.326 9.005 2.465 2.068 5.212 4.028 7.149 6.632 1.658 2.228 2.892 6.022.774 8.424-2.267 2.57-7.377 1.431-10.252.993-3.352-.51-6.674-1.136-9.997-1.802-1.126-.226-2.289-.487-3.44-.547-1.376-.072-1.88-.15-.927 1.129 2.369 3.177 5.932 5.461 8.426 8.563 1.175 1.462 2.545 2.625 3.78 4.028 1.539 1.747 2.746 3.76 4.121 5.633m46.111-17.363c1.62 1.649 3.447-.696 4.76-1.77 1.967-1.612 3.888-3.28 5.885-4.855 3.783-2.984 7.72-5.753 11.276-9.017 1.12-1.03 2.963-2.182 3.304-3.758.434-2.012-.61-3.81.457-5.832 2.02-3.831 6.198-.697 8.923-2.902 1.4-1.133 2.386-2.776 3.489-4.178 1.313-1.669 2.99-3.288 3.745-5.298.787-2.09.89-3.091-.574-4.859-1.577-1.903-3.49-3.642-4.756-5.784-.871-1.476-1.583-3.646-.213-5.074 1.106-1.154 3.022-.843 4.454-.755 2.085.13 4.16.324 6.209.739 1.62.327 4.713 1.184 6.267.294 3.668-2.1-2.926-7.507-4.387-9.112-3.263-3.585-6.685-7.02-10.078-10.481-3.138-3.2-6.307-6.403-9.254-9.782-2.193-2.516-4.763-6.066-3.587-9.618.954-2.878 4.163-2.97 6.717-2.77 3.74.294 7.462.907 11.186 1.352 2.776.332 8.118 1.376 10.486-.833 2.448-2.283-2.778-9.066-4.129-11.098-2.854-4.295-6.144-8.28-9.551-12.14a420.514 420.514 0 0 0-5.03-5.568c-1.465-1.603-2.808-3.622-4.492-4.999-1.841-1.505-4.59-1.328-6.847-1.555-2.373-.239-4.897-.59-7.283-.582-2.172.008-1.635 2.103-1.727 3.919-.022.435-.607 4.294.052 4.355l.217-2.578c1.855.763 3.232 2.404 4.67 3.738 1.435 1.33 3.384 2.685 3.99 4.642 1.71 5.525-5.112 3.565-7.971 3.004.643 6.275 2.246 12.374 3.129 18.607.37 2.611.22 4.975-.07 7.572-.164 1.48-.145 2.975-.325 4.454-.143 1.174-.688 2.515-.47 3.695.398 2.16 3.12 4.426 4.33 6.253 1.605 2.423 3.021 5.05 3.763 7.879 1.341 5.107-.943 8.78-6.279 9.27-2.407.222-5.07-.15-7.455-.49-2.049-.293-4.666-1.815-6.536-.438-.765.563-1.292 1.56-1.964 2.25-.973.997-2.067 1.888-3.141 2.773-1.013.834-3.784 2.316-3.51 3.595.205.963 1.875 2.34 2.44 3.053.743.935 1.48 1.874 2.195 2.83 1.82 2.426 3.553 4.932 5.123 7.527 1.898 3.141 4.564 8.753 1.352 12.009-1.86 1.885-4.948 1.552-7.32 1.181a112.965 112.965 0 0 1-9.621-1.94c-3.18-.786-6.386-1.333-9.603-1.93-2.748-.51-5.944-1.486-8.692-.476 8.027 9.358 17.837 16.712 26.446 25.48m46.83-43.285a51.943 51.943 0 0 0 3.003-3.857c.842-1.204.773-1.729-.646-2.103-.883-.234-1.864-.006-2.764-.111-.938-.11-1.874-.412-2.792-.62-1.032-.232-2.19-.586-3.254-.583-1.2.003-1.318-.106-.715.975.827 1.48 2.427 2.774 3.567 4.008.718.777 2.434 3.658 3.602 2.29m-1.328 16.97c.544 1.196 4.457.32 5.086-.504 1.376-1.8-2.144-5.989-3.07-7.505-1.396.927-1.88 2.152-1.962 3.77-.058 1.12-.516 3.22-.054 4.24m-1.473 59.434c2.338.232 5.401-1.118 7.543-1.86 2.965-1.027 6.05-1.759 9.109-2.443 6.145-1.373 12.498-1.565 18.66-2.883-3.916-5.103-8.651-9.5-12.632-14.548-1.443-1.83-3.565-4.454-2.895-6.965.656-2.462 3.196-1.918 5.082-1.35 2.53.76 4.974 1.82 7.447 2.744 1.17.436 6.393 2.948 7.359 1.32.651-1.1-3.057-5.196-3.597-5.904-2.02-2.644-4.212-5.15-6.421-7.637-4.122-4.639-8.8-9.385-11.988-14.738-2.389-4.013-3.19-10.347 3.263-10.094 2.664.105 5.379.932 7.978 1.476 2.401.502 5.95 1.613 8.4.993 2.58-.654-.387-4.51-1.199-5.782-1.716-2.688-3.731-5.2-5.621-7.767-2.034-2.762-4.202-5.464-6.104-8.318-1.183-1.777-3.101-4.875-2.026-7.12 1.233-2.578 5.47-.985 7.545-.594 3.93.741 7.785 1.974 11.822 1.974-.04-2.029-2.116-3.813-3.31-5.252-1.793-2.161-3.64-4.254-5.6-6.265-1.379-1.415-2.886-3.719-4.5-4.81-1.65-1.114-2.625 2.41-3.274 3.721-4.729 9.556-9.898 18.924-16.274 27.496-1.284 1.725-3.168 3.118-2.091 5.322 1.12 2.291 2.598 4.297 3.029 6.883.318 1.91.15 4.566-1.318 6.017-1.423 1.406-3.514 1.087-5.272 1.637-1.867.585-1.34 2.242-1.357 3.901-.029 2.902-.064 5.803-.047 8.705.016 2.579.051 5.158.082 7.737.032 2.727.696 4.66 1.44 7.228.386 1.337.52 2.72.092 4.063-.368 1.155-.973 1.376-1.682 2.194-1.38 1.59-.94 4.613-1.108 6.635-.122 1.45-2.144 14.125-.535 14.284m5.753 31.009c.588.74 2.698.503 3.522.557 1.564.103 3.13.103 4.694.188 3.338.181 6.632.646 9.98.705 2.751.049 5.602.182 8.246.37 1.304.094 2.768-.472 4.035-.207 1.25.262 1.726.627 3.079.519 3.368-.27 6.814.07 10.188.153 3.122.076 6.27-.16 9.397-.202 3.517-.046 7.042.082 10.56.118 3.762.04 7.604-.185 11.32.531-.345-1.583-.321-3.448-1.598-4.632-1.309-1.212-3.477-1.488-5.16-1.686-2.452-.288-4.883-.354-7.329-.458-1.528-.065-2.998-.584-4.517-.757-2.18-.249-4.524-.105-6.72-.14-.753-.012-1.253-.291-1.944-.397-.811-.124-1.604.084-2.488-.132-1.833-.449-3.704-.918-5.483-1.517-1.086-.365-1.041-.675-1.932.173-.557.532-.9 1.538-1.37 2.163-.778 1.033-2.17 2.269-3.37 1.026-1.27-1.318.091-2.796-.19-4.163-.219-1.055-2.222-1.982-3.222-1.584-1.384.55-1.794 3.414-3.276 3.738-1.864.407-1.36-2.417-1.108-3.468.66-2.752.424-2.842-1.77-4.674-1.673-1.397-2.14-1.942-4.215-.898-2.092 1.051-4.376 1.509-6.707 1.76-2.753.298-5.322-.013-8.017-.565-1.268-.259-3.739-1.233-4.568.1-.934 1.503.027 5.184.061 6.923.026 1.296.104 2.63-.019 3.923-.064.668-.554 1.935-.079 2.533m33.776-39.257c1.936-.168 3.833-.682 5.763-.916.703-.085 2.213-.06 2.795-.558.711-.61.378-.55.233-1.437-.69-4.215-.954-8.296-.852-12.58.076-3.205.7-8.192-1.207-10.98-2.247-3.285-5.663-5.716-7.943-9.012-1.233-1.782-2.954-6.567.95-6.439 1.553.05 3.212 1.037 4.72 1.402 2.134.517 2.264-.002 2.075-1.939-.442-4.545-.31-9.11-.774-13.658-.476-4.674-.987-9.352-1.51-14.022-.256-2.27-.372-4.673-.812-6.908-.428-2.173-2.535-1.004-4.38-1.092-4.882-.235-9.629-3.233-14.536-2.764 4.091 7.688 11.069 13.527 15.038 21.316 1.372 2.692 2.65 6.903-.733 8.7-3.77 2.004-9.526-.535-13.405-1.18-1.357-.225-6.75-1.803-7 .3-.136 1.132 2.06 3.78 2.608 4.598 1.25 1.865 2.69 3.595 4.043 5.385 2.7 3.574 5.914 6.684 8.716 10.183 2.443 3.051 5.441 6.042 7.41 9.426 1.85 3.177 2.205 8.903-2.992 8.277-5.32-.64-9.949-4.797-15.372-4.92 2.772 3.659 5.935 6.99 9.012 10.387a142.267 142.267 0 0 1 4.337 4.993c.899 1.089 2.132 3.585 3.816 3.438m7.262-33.157c-.118-1.521.25-2.372-1.13-3.205-.888-.537-2.989-1.372-3.963-1.003.368.428 4.58 5.471 5.03 5.065.112-.274.133-.56.063-.857m-7.342-69.98c-.253-2.926-.842-5.82-.968-8.757-.086-1.986.197-4.628-1.146-6.285-1.625 3.046-2.718 6.34-4.342 9.386-.695 1.304-1.47 2.563-2.188 3.853-.49.882-1.93 2.775-1.817 3.826.193 1.795 3.756 4.368 4.91 5.65 2.458 2.73 4.865 5.51 7.377 8.192-.34-5.317-1.367-10.56-1.826-15.865m.07-47.551c-.679-.955-5.411-.503-6.433-.595-3.215-.284-6.708-.538-9.82-1.403 4.94 6.121 9.38 12.748 12.281 20.097 1.102-3.003 1.826-6.129 2.5-9.251.341-1.588.635-3.183.89-4.788.115-.725 1.021-3.442.582-4.06m-15.084 44.792c1.323.661 5.336-9.23 5.513-10.326-1.903.435-9.478.79-9.923 3.195-.208 1.123 1.087 2.479 1.653 3.29.692.995 1.662 3.295 2.757 3.841m-12.022-10.068c-2.802 3.516-8.032 2.805-11.943 2.306-2.65-.34-5.273-.795-7.915-1.185-2.606-.385-5.767-1.097-8.295-.022 4.1 5.77 9.376 10.542 14.358 15.518 2.553 2.552 5.02 5.188 7.476 7.834 2.408 2.596 4.33 5.864 6.884 8.27 2.168-3.967 4.22-7.993 6.31-12 .878-1.684 2.008-3.2 2.91-4.863.992-1.833 1.145-2.676-.122-4.338-1.886-2.473-4.537-5.822-4.158-9.143.443-3.878 5.043-4.304 8.055-5.14 1.514-.42 3.252-.74 4.636-1.505 1.758-.973 1.837-2.58 2.419-4.322.704-2.11 1.35-3.48.606-5.699-.619-1.846-1.544-3.68-2.4-5.424-1.797-3.668-4.045-7.045-6.428-10.352-1.567-2.173-3.414-6.51-6.216-7.09-1.988-.411-4.497-.242-6.536-.355-2.378-.131-4.758-.206-7.137-.309-4.93-.213-10.209-.68-15.114-.029 5.777 6.256 11.617 12.355 16.756 19.168 3.31 4.387 10.37 13.011 5.854 18.68m22.11-47.324c-2.68-4.976-5.168-9.896-8.796-14.241-3.137-3.758-5.983-7.68-9.24-11.349-6.83-7.699-15.696-13.388-23.961-19.37-1.87-1.354-4.263-2.092-6.315-3.272-2.539-1.46-5.26-2.68-8.007-3.69-4.985-1.83-10.709-2.764-16.017-2.393-5.867.41-10.293 2.487-13.936 7.07-3.57 4.491-4.124 9.45-4.22 15.096a301.873 301.873 0 0 0-.053 8.064c.025 2.655.37 4.334 1.994 6.38 1.337 1.683 4.153 2.533 6.075 3.311a57.346 57.346 0 0 1 7.5 3.663c1.055.616 3.56 2.934 4.862 2.688 1.918-.363 2.388-3.771 2.578-5.284.715-5.658.638-11.444.292-17.13-.177-2.91-1.53-7.285-.763-10.231.318-1.224 1.045-1.658 1.942-.578 1.11 1.337 1.382 4.475 1.669 6.087 1.01 5.678.943 11.387.976 17.13.013 2.28 1.285 3.464 2.119 5.497 1.066 2.6 1.939 5.312 2.464 8.073.305 1.603.52 3.237.498 4.872-.013.898-.455 2.327-.11 3.18.668 1.655 4.818.73 6.21.698 6.2-.138 12.383-.469 18.593-.549 12.572-.161 25.233 1.71 37.546 4.084-1.276-2.614-2.522-5.244-3.9-7.806m-5.404-26.565c.985.162 4.294 1.973 4.866.825.488-.982-1.927-4.497-2.288-5.434-.838-2.174-1.04-4.601-1.534-6.87-.31-1.43-.34-4.258-1.113-5.532-.864-1.425-2.877-.71-4.307-.667-2.437.073-4.9.072-7.339.064-2.48-.01-4.96-.074-7.44-.067-2.536.008-5.041-.414-7.558-.414.283.913 1.463 1.359 2.204 1.788 1.141.662 2.103 1.449 3.103 2.313 2.345 2.024 4.684 3.642 6.65 6.057 1.777 2.183 4.26 4.518 6.465 6.273 1.181.94 1.989.864 3.42.852 1.712-.015 3.2.539 4.871.812m6.074-4.864c.616 1.89.674 2.445 2.671 2.311 2.568-.173 5.142-.334 7.714-.52 5.867-.426 11.739-1.304 17.607-1.6 5.003-.253 10.405-.858 15.377-.336 2.32.244 4.793-.225 7.16-.132 2.856.112 5.74.1 8.473.98 2.277.736 4.18 1.133 5.808 3.033 1.64 1.913 2.759 4.325 3.85 6.576 2.113 4.366 3.767 10.065 7.485 13.37.939.836 2.542 2.254 3.909 2.096 2.247-.259 1.558-3.24 1.36-4.753-.665-5.096-2.663-9.501-4.154-14.368-.445-1.456-1.328-5.299.98-5.834 1.661-.386 4.27 3.274 5.225 4.257 2.102 2.165 4.16 4.265 6.51 6.17 1.939 1.574 3.889 3.313 6.57 2.975-1.283-3.466-2.699-6.821-4.8-9.88-1.804-2.624-4.845-4.987-5.972-8.006-.85-2.274-.098-5.376 2.543-3.375 2.294 1.737 4.28 3.862 6.624 5.568 3.077 2.238 6.569 4.093 10.216 5.2 1.207.366 3.348 1.076 4.504.202 1.725-1.303-.034-4.021-1.002-5.219-9.08-11.23-24.18-15.256-37.959-16.103-3.591-.22-7.326.134-10.932.185-3.42.047-6.596.467-9.977.968-7.019 1.04-14.052 1.886-21.04 2.924-1.871.279-4.09.83-5.953.757-.767-.03-1.166-.236-1.931-.03-.653.175-1.123.525-1.85.643-4.142.669-8.357.93-12.553.983-2.018.025-4.057-.013-6.06-.277-1.18-.156-2.388-.648-2.72.756-.252 1.058.585 3.063.872 4.083.587 2.083.788 4.378 1.445 6.396m-75.07-36.3c.706.027 1.87.134 2.099-.75.432-1.664-1.789-.648-2.2-1.696-.459-1.166 1.105-1.468 1.795-1.657 1.406-.384 1.044-.302 1.082-1.764.036-1.35.47-2.578 1.017-3.8.76-1.697.798-1.612-.905-1.807-2.866-.327-3.492-2.863-4.552-5.183-.655-1.431-1.38-2.828-1.786-4.357-.248-.928-.213-2.402-1.119-2.925-1.222-.706-4.069.024-5.357.193-2.153.284-4.416.605-6.476 1.329-1.765.62-2.437 2.06-4.029 2.314-1.029.165-7.221-.224-6.408 1.677.507 1.184 2.898.507 3.779.472 1.125-.045 2.497-.213 3.613.007 1.115.221 1.22.639 1.655 1.75-1.045-.051-4.953-.636-5.807.134-.758.682-.198 1.43.564 1.682 1.487.49 3.496-.461 5.056-.052 1.11.29 1.034.33 1.491 1.447.239.583.51 1.179.611 1.806.574 3.54-2.667.792-4.015.008-2.465-1.435-5.138-1.167-4.659 2.279.158 1.14.772 2.138 1.56 2.96 1.111 1.159 1.399 1.377 1.456 3.128.05 1.507-.112 3.118.42 4.565.587 1.593 1.837 2.951 2.814 4.311 1.173 1.634 2.387 3.247 3.518 4.91.488.717 1.183 2.52 2.123 2.759.884.224 2.255-1.197 2.987-1.604 1.776-.986 3.726-1.628 5.55-2.51-1.529-1.362-2.89-2.907-4.387-4.275-1.17-1.068-1.775-1.272-1.39-3.075.866-4.047 6.944-2.386 9.9-2.275m-22.992 85.028c-4.833 4.687-12.019 7.617-18.556 8.797-6.848 1.235-14.657 2.15-21.327-.239-6.84-2.45-13.236-5.973-19.027-10.357-.711-.54-8.687-8.339-9.33-7.724 2.37 3.554 4.856 7.02 7.368 10.472 1.234 1.697 5.5 7.535 3.047 9.647-1.625 1.4-4.39-.855-5.723-1.759-3.212-2.176-6.79-3.347-10.695-3.347 1.804 3.316 4.546 6.253 6.013 9.756.693 1.655.34 1.535-1.226 1.085-1.959-.562-4.181-1.213-6.225-1.306-.951-.043-2.882.376-3.043 1.62-.154 1.19 2.368 3.434 3.072 4.286 2.58 3.124 5.209 6.088 8.398 8.607 6.121 4.835 13.388 7.952 20.784 10.267 7.556 2.365 15.632 3.078 23.357 1.174 3.827-.943 7.338-2.223 10.766-4.133 1.552-.864 3.184-1.256 4.676-2.272a176.592 176.592 0 0 1 4.705-3.113c3.26-2.07 5.28-4.15 7.555-7.26.915-1.25 2.17-2.177 3.042-3.408.96-1.356 1.949-2.738 2.844-4.166 4.13-6.583 8.178-13.66 10.586-21.083 1.242-3.827 2.085-7.763 3.126-11.646.359-1.336 1.682-3.906 1.406-5.263-.267-1.309-2.335-1.84-3.359-2.395-2.99-1.62-5.988-3.058-8.905-4.78-4.03-2.381-3.316 2.5-3.577 5.317-.776 8.377-3.586 17.242-9.752 23.223m34.082 3.202c.85.73 3.002 1.183 4.09.85-1.073-1.6-2.725-2.65-4.115-3.937-.152.885-.824 2.358.025 3.087m-5.188 56.919c1.957.143 3.999.731 5.94.747 1.73.014 3.92.155 5.601-.217 4.64-1.028 1.897-5.232.282-7.976-.893-1.517-2.022-2.875-2.953-4.366-.225-.36-.848-1.826-1.347-1.876-.732-.073-.96 1.131-1.313 1.868-.956 1.994-1.84 4.055-2.924 5.984-1.091 1.94-2.615 3.68-3.286 5.836m-50.188 29.52c-.401-2.231-6.92.035-8.394.301-.423.077-5.53.7-5.484 1.145 1.69.125 14.377 1.332 13.878-1.446m-88.64 49.82c-1 .434-.964-2.748-1.01-3.17-.093-.852-.21-2.384.222-3.131.317-.548.41-.27.58-.414 1.394-1.184-.29-1.69-.603-2.634-.097-.29-.105-1.09.039-1.332.411-.694.525-.175 1.014-.466.328-.195.994.287.801-.602-.158-.734-.719-.284-1-.513-1.066-.873-.958-2.02-.787-3.415.163-1.326.32-2.744.709-4 .2-.644.472-.353.45-1.114-.01-.397-.613-.79-.633-1.288-.024-.62.55-1.617.583-2.27.042-.86.05-1.606-.046-2.418-.058-.497-.19-.678-.217-1.283-.025-.57.1-1.239.111-1.833.034-1.687.258-3.383.555-4.997a3.39 3.39 0 0 0 .41-.816 2.83 2.83 0 0 0-.346-.85c-.045-.772-.03-1.525-.021-2.308.017-1.451-.26-2.83-.344-4.26-.025-.425-.192-1.134.103-1.527.225-.3 1.01-.225 1.097-.513.248-.824-.495-.332-.656-.75-.13-.334-.063-.774-.085-1.11-.06-.91 1.248-7.09 2.38-6.287-.451-.32.434-2.448.721-2.808 1.067-1.339 1.705.178 2.57 1.12 1.212 1.318 2.267.47 3.84.172 1.949-.368 4.09-.238 6.064-.195 2.025.044 4.078.158 6.095.336 2.17.193 4.274.85 6.467.817 3.25-.05 6.542.027 9.79-.09.65-.023 2.223.045 2.495-.783.103-.31-.484-.963-.572-1.306-.17-.659-.182-1.523.108-2.167.875-1.945 2.697-.357 3.98.35 1.934 1.063 3.938 1.97 6.074 2.545 8.518 2.295 18.567 2.167 27.265 1.083 8.832-1.1 17.564-3.763 26.176-5.944 7.863-1.992 15.12-6.408 21.155-11.812 6.153-5.508 11.008-13.147 14.047-20.816 3.386-8.544.923-17.146.837-25.885-.043-4.358-1.01-8.611-1.276-12.956-.257-4.213.103-8.167 1.365-12.29.322-1.051.774-2.106 1.008-3.181.218-.996-.167-1.794-.04-2.733.275-2.01 2.493-1.805 3.462-3.299.879-1.352-.026-3.457-.337-4.907-.54-2.519-1.213-5.007-1.831-7.506-.639 1.488-1.235 2.973-1.62 4.55-.1.404-.109 1.118-.385 1.477-.2.26-.704.226-.861.465-.533.807-.472 1.617-.564 2.656-.18 2.014-.505 4.006-.835 5.999-1.112 6.696-1.958 13.295-4.585 19.616-4.842 11.648-11.381 22.487-21.052 30.75-4.383 3.744-9.957 6.072-15.262 8.045-6.327 2.353-12.346 3.629-19.139 3.018-6.41-.576-12.817-2.57-18.689-5.154-5.783-2.546-11.214-4.787-16.152-8.889-5.277-4.382-10.546-9.673-14.176-15.538-1.323-2.14-3.68-6.553-3.102-9.232.74-3.436 6.01-1.17 7.914-.459-1.602-2.624-5.889-7.299-3.757-10.573 3.111-4.777 11.254.061 14.589 1.832-1.719-3.5-4.345-6.441-6.207-9.857-.922-1.692-3.471-8.574.274-8.946 1.134-.113 2.338 1.183 3.139 1.833a596.435 596.435 0 0 1 4.64 3.817 60.925 60.925 0 0 0 10.81 7.19c7.77 4.047 15.285 6.197 24.109 5.336 7.518-.733 15.809-3.021 21.655-7.985 3.511-2.98 6.302-6.277 8.106-10.56 1.991-4.73 3.26-9.925 4.654-14.86-2.16-.557-3.673-.234-3.256-2.806.5-3.084.39-6.204.408-9.334.038-6.489.157-13.048 2.184-19.274.36-1.109.679-2.25 1.3-3.248.767-1.23 1.478-1.413.491-2.755-1.899-2.582-3.872-4.79-5.28-7.757-.733-1.543-1.413-3.055-2.316-4.498-1.481-2.366-3.417-4.101-5.318-6.15-2.181-2.352-3.89-4.571-5.011-7.592-.524-1.41-1.238-2.814-1.51-4.303-.322-1.776.013-3.593.166-5.37.507-5.896 2.484-10.653 8.272-12.957 4.704-1.872 10.111-2.678 15.043-1.23 5.966 1.751 8.794 6.994 11.635 12.067.802 1.43 1.295 2.944 2.022 4.396.745 1.489 1.518 1.49 2.89 2.095 2.72 1.196 2.49 4.648 1.309 6.917-1.5 2.883-1.197 6.223-2.49 9.232-1.324 3.082-3.38 3.941-6.514 4.632 1.195.95 2.284 2.193 3.807 2.6 1.85.492 4.09.022 6.003.05 3.974.055 7.992.594 11.768 1.866 3.708 1.25 7.032 3.248 10.48 5.037 1.575.817 3.045 1.984 4.845 2.22 1.747.231 3.507-.2 5.264.026 3.853.496 8.076-.13 12.005-.215 4.232-.092 8.479-.033 12.702-.343 1.824-.134 3.626-.326 5.457-.167 1.663.145 2.655-.248 4.094.893.956.757 1.718 2.612 2.845 2.865 1.201.27 3.567-.485 4.753-.664 3.989-.602 8.008-1.398 11.972-2.133 1.857-.344 3.608-.971 5.48-1.295 1.934-.334 3.942-.443 5.851-.873 3.09-.697 6.428-.956 9.65-1.401 3.774-.521 7.655-1.62 11.459-1.76 15.921-.581 33.767-1.527 47.884 7.312 3.314 2.076 6.72 4.726 9.274 7.695 2.346 2.728 5.226 6.336 5.824 9.97.535 3.245.145 8.928-4.187 8.968-4.225.038-8.565-2.487-12.2-4.358 1.552 3.727 6.27 11.71 2.175 15.33-4.227 3.734-12.009-4.37-14.8-6.972.552 3.982 4.49 18.454-2.963 18.679-7.275.218-11.496-8.762-14.088-14.093-1.368-2.815-2.39-6.121-4.61-8.412-2.234-2.303-5.331-2.226-8.354-2.52-7.349-.716-14.657-.754-22.048-.93-9.354-.225-18.541 1.319-27.908.447.118 1.808-.568 5.1-2.397 5.793-2.696 1.02-6.003-.447-8.763-.447.186 1.106 1.758 2.271 2.42 3.106 1.187 1.496 2.209 3.1 3.164 4.753 1.866 3.227 3.85 6.46 5.175 9.958a54.671 54.671 0 0 1 1.715 5.394c.276 1.046.271 2.61.83 3.534.695 1.15 1.762.486 2.642 1.387 1.269 1.3-.055 1.984-.455 3.13-.433 1.24.11 3.34-.054 4.702-.248 2.047-.51 4.107-.85 6.14-.619 3.716-1.934 7.153-2.814 10.78-.835 3.441 1.425 7.08 2.17 10.408.867 3.864 1.37 7.772 2.259 11.629.939 4.07 1.374 8.264 2.022 12.387.632 4.03 1.543 8.01 2.16 12.042 1.178 7.684 1.926 15.509 2.854 23.224.487 4.044.86 8.14.897 12.216.033 3.816.571 7.543.65 11.352.083 4.038.13 8.078.304 12.113.172 3.99-.322 7.963-.503 11.948-.086 1.899-.15 3.801-.121 5.702.023 1.605.463 3.483.065 5.054-.785 3.104-5.149 4.97-7.888 5.873-3.348 1.104-6.883 1.867-10.311 2.683a58.84 58.84 0 0 1-5.06.986c-.66.097-1.425.058-2.042.339-.929.423-.746.21-.795 1.268-.08 1.71.42 3.581.68 5.257.24 1.542-.065 4.079.53 5.462.678 1.572 5.453 2.86 6.622 1.794.824-.753 1.06-2.175 2.03-2.808 1.398-.914 2.04.366 2.034 1.74-.005 1.035-.787 2.284.153 3.04.815.656 2.533.312 3.32-.227 1.312-.9 4.034-6.469 4.7-1.732.156 1.116-.324 2.415.62 3.262.886.794 3.02.758 4.137.9 1.782.226 3.343.302 5.142.263 2.009-.043 3.906.429 5.88.518 3.077.138 6.164.555 9.31.616 3.212.063 6.712.902 9.182 3.085 2.836 2.505 2.252 5.602 1.711 8.957-.357 2.22 2.47 4.616-.384 6.557-1.144.778-3.046.614-4.362.626-2.25.02-4.474-.242-6.726-.116-16.404.914-32.87.233-49.27-.31-3.831-.125-7.81.05-11.61-.413-1.692-.207-3.372-.502-5.068-.683-1.45-.155-3.183.1-4.569-.372-3.431-1.168.24-4.724.514-6.754.532-3.942.307-8.12.332-12.091.027-4.223 0-8.446 0-12.668-1.824.127-6.944 1.48-8.375-.088-1.182-1.297.83-4.004.929-5.56.402-6.346.266-12.698.744-19.049.494-6.55.433-13.04.638-19.591.22-6.997.715-13.97.715-20.977-5.105 5.412-9.98 11.355-15.656 16.179-2.432 2.066-5.08 3.854-7.62 5.78-2.86 2.17-5.524 4.586-8.368 6.777-5.291 4.077-11.584 6.46-17.174 10.084-5.65 3.665-11.68 6.682-18.186 8.496-7.112 1.982-14.653 2.642-22.012 2.261-3.531-.182-7.044-.636-10.521-1.271-1.45-.265-2.885-.611-4.334-.87-2.052-.369-3.051-.025-4.971.351-2.524.494-3.152-3.197-3.9-4.97-1.38-3.274-1.977-6.85-3.197-10.197a434.845 434.845 0 0 1-5.991-17.593c-.429-1.35-.714-3.693-2.323-3.883-1.085-.129-2.955 1.084-4.02 1.419-1.85.582-3.604.843-5.531.891-1.625.04-1.82.65-2.835 1.807-.93 1.061-2.612 1.67-2.296 3.21.188.913 1.155 1.617 1.336 2.648.65 3.699-3.059.5-4.362-.307-.79 1.743 5.175 3.68 3.001 6.148-1.064 1.209-3.283-.628-4.342-1.097-2.47-1.095-2.846 1.883-3.503 3.812-1.207 3.542-2.016 7.26-2.94 10.884-.892 3.492-1.616 7.061-3.023 10.395-1.253 2.971-3.435 4.91-4.994 7.594-.766 1.32-1.613 2.272-3.271 2.334-1.122.043-3.196-.399-4.256-.827-1-.405-2.085-1.636-2.785-2.41-.97-1.072-.779-2.11-1.565-3.423.034.66.18 1.273.216 1.917-1.435-1.131-.004-2.91-.265-4.345-.082-.455-.55-.835-.576-1.312-.012-.195.405-.644.433-.917.033-.322.06-1.258-.032-1.497-.066-.172-.618-1.047-.606-.888-.009-.116-.204-.299-.1-.681.159-.577 1.077-.68 1.003-1.454" opacity=".5"/>
    </g>
</svg>
