<svg xmlns="http://www.w3.org/2000/svg" width="100" height="29" viewBox="0 0 100 29">
    <g fill="#1D212B" fill-rule="nonzero">
        <path d="M6.438 5.657c1.281 0 2.375.316 3.28.948a4.958 4.958 0 0 1 1.896 2.51V.994h2.947v18.962h-2.947v-3.28a4.958 4.958 0 0 1-1.896 2.51c-.905.633-1.999.949-3.28.949-1.23 0-2.327-.29-3.293-.871-.965-.581-1.72-1.418-2.267-2.511-.547-1.094-.82-2.383-.82-3.87 0-1.469.273-2.75.82-3.843.546-1.093 1.302-1.93 2.267-2.511.966-.58 2.063-.871 3.293-.871zm.897 2.562c-1.298 0-2.336.414-3.113 1.243-.778.828-1.166 1.969-1.166 3.42 0 1.453.388 2.593 1.166 3.421.777.829 1.815 1.243 3.113 1.243.82 0 1.554-.192 2.204-.576a4.095 4.095 0 0 0 1.537-1.628c.376-.7.564-1.52.564-2.46 0-.922-.188-1.738-.564-2.447-.376-.708-.888-1.255-1.537-1.64-.65-.384-1.384-.576-2.204-.576zM30.86 5.836v14.119h-2.946V16.88c-.36 1.042-.983 1.849-1.871 2.421-.888.573-1.922.859-3.1.859-1.64 0-2.956-.53-3.946-1.589-.991-1.06-1.487-2.57-1.487-4.535v-8.2h2.921v7.892c0 1.281.325 2.268.974 2.96.65.691 1.538 1.037 2.665 1.037 1.162 0 2.093-.375 2.793-1.127.7-.752 1.05-1.845 1.05-3.28V5.836h2.947zm7.922-.18c1.657 0 2.985.423 3.984 1.27 1 .845 1.61 1.976 1.832 3.394h-2.767c-.12-.769-.448-1.388-.987-1.858-.538-.47-1.25-.704-2.14-.704-.734 0-1.302.175-1.703.525-.402.35-.602.824-.602 1.422 0 .444.145.803.435 1.076.29.274.654.487 1.09.641.435.154 1.054.325 1.857.512 1.06.24 1.918.487 2.575.744a4.172 4.172 0 0 1 1.691 1.217c.47.555.705 1.31.705 2.267 0 1.179-.448 2.136-1.345 2.87-.897.735-2.106 1.102-3.626 1.102-1.76 0-3.182-.41-4.266-1.23-1.085-.82-1.738-1.964-1.96-3.433H36.4a2.685 2.685 0 0 0 1.025 1.87c.598.478 1.383.718 2.357.718.7 0 1.251-.184 1.653-.551.401-.368.602-.833.602-1.397 0-.495-.154-.888-.461-1.179a3.199 3.199 0 0 0-1.153-.679c-.462-.162-1.094-.328-1.896-.5-1.025-.238-1.858-.478-2.499-.717a3.894 3.894 0 0 1-1.64-1.166c-.452-.538-.679-1.268-.679-2.19 0-1.196.449-2.166 1.346-2.909.896-.743 2.14-1.114 3.728-1.114zm15.762 11.762v2.537h-1.794c-1.503 0-2.643-.363-3.42-1.09-.778-.725-1.166-1.934-1.166-3.625V8.322H46.14V5.836h2.024v-3.51h2.947v3.51h3.408v2.486h-3.408v6.97c0 .802.149 1.357.448 1.665.299.307.824.46 1.576.46h1.41zM65.157 5.657c1.23 0 2.328.29 3.293.87.965.582 1.72 1.419 2.267 2.512.547 1.093.82 2.374.82 3.844 0 1.486-.273 2.775-.82 3.869-.546 1.093-1.302 1.93-2.267 2.51-.965.582-2.063.872-3.293.872-1.281 0-2.374-.316-3.28-.948a4.958 4.958 0 0 1-1.896-2.511v3.28h-2.92V.993h2.92v8.123a4.958 4.958 0 0 1 1.896-2.511c.906-.632 1.999-.948 3.28-.948zm-.897 2.562c-.82 0-1.554.192-2.203.577-.65.384-1.162.93-1.538 1.64-.376.708-.563 1.524-.563 2.447 0 .94.187 1.759.563 2.46.376.7.889 1.242 1.538 1.627.649.384 1.383.576 2.203.576 1.299 0 2.34-.414 3.126-1.243.786-.828 1.18-1.968 1.18-3.42 0-1.435-.394-2.571-1.18-3.408-.785-.837-1.827-1.256-3.126-1.256zm9.46-6.483c0-.495.17-.905.512-1.23.341-.324.794-.486 1.358-.486.564 0 1.02.162 1.37.486.35.325.526.735.526 1.23 0 .496-.175.897-.525 1.205-.35.307-.807.46-1.371.46s-1.017-.153-1.358-.46c-.342-.308-.513-.71-.513-1.205zm3.33 4.1v14.119h-2.92V5.836h2.92zm11.202-.23c1.64 0 2.955.529 3.946 1.588.99 1.06 1.486 2.571 1.486 4.535v8.226h-2.921v-7.918c0-1.264-.325-2.242-.974-2.934-.649-.692-1.537-1.038-2.665-1.038-1.161 0-2.092.372-2.793 1.115-.7.743-1.05 1.832-1.05 3.267v7.508H80.36V5.836h2.92v3.1c.377-1.059 1.009-1.879 1.897-2.46.888-.58 1.913-.87 3.075-.87zM99.712 17.18v3.228h-3.305V17.18z"/>
        <path d="M74.813 22.542l-1.248 3.685-1.061-3.685H70.87l1.831 5.738h1.574l1.318-3.918 1.341 3.918h1.551l1.796-5.738h-1.54l-1.06 3.697-1.237-3.697h-1.632zm8.76 4.502c-.758 0-1.458-.56-1.458-1.633s.7-1.633 1.458-1.633 1.457.56 1.457 1.633-.7 1.633-1.457 1.633zm0-4.677c-1.726 0-3.01 1.271-3.01 3.044 0 1.761 1.284 3.044 3.01 3.044 1.726 0 3.008-1.283 3.008-3.044 0-1.773-1.282-3.044-3.008-3.044zm7.628 1.715v-1.563l-.18-.016a2.369 2.369 0 0 0-.181-.007c-.49 0-1.283.14-1.633.898v-.852h-1.504v5.738h1.55v-2.624c0-1.236.689-1.621 1.482-1.621.151 0 .315.012.466.047zm6.556-1.54l-2.298 2.414 2.345 3.324h-1.901l-1.516-2.193-.642.677v1.516h-1.55v-8.325l1.489-.109.061 4.83 1.983-2.134h2.029z"/>
    </g>
</svg>
