<svg xmlns="http://www.w3.org/2000/svg" width="103" height="30" viewBox="0 0 103 30">
    <g fill="#FFF" fill-rule="nonzero">
        <path d="M6.625 5.82c1.318 0 2.443.326 3.375.976a5.102 5.102 0 0 1 1.95 2.584V1.022h3.033v19.511h-3.032v-3.375A5.102 5.102 0 0 1 10 19.742c-.932.65-2.057.976-3.375.976-1.266 0-2.395-.299-3.388-.897-.993-.597-1.771-1.459-2.334-2.584-.562-1.124-.844-2.452-.844-3.98 0-1.513.282-2.83.844-3.956.563-1.125 1.34-1.986 2.334-2.584.993-.597 2.122-.896 3.388-.896zm.923 2.637c-1.336 0-2.404.427-3.204 1.28-.8.852-1.2 2.025-1.2 3.52 0 1.493.4 2.667 1.2 3.52.8.852 1.868 1.278 3.204 1.278.843 0 1.6-.198 2.267-.593a4.214 4.214 0 0 0 1.582-1.675c.387-.72.58-1.564.58-2.53 0-.95-.193-1.79-.58-2.519-.387-.73-.914-1.292-1.582-1.687-.668-.396-1.424-.594-2.267-.594zm24.208-2.452v14.528h-3.032V17.37c-.37 1.073-1.01 1.903-1.925 2.492-.914.589-1.977.883-3.19.883-1.688 0-3.041-.545-4.06-1.634-1.02-1.09-1.53-2.646-1.53-4.667V6.005h3.006v8.121c0 1.319.334 2.334 1.002 3.046.668.711 1.582 1.067 2.742 1.067 1.195 0 2.153-.386 2.874-1.16.72-.773 1.081-1.898 1.081-3.375V6.005h3.032zm8.151-.184c1.706 0 3.072.435 4.1 1.305 1.029.87 1.657 2.035 1.886 3.493h-2.848c-.123-.79-.461-1.428-1.015-1.911-.554-.484-1.288-.725-2.202-.725-.755 0-1.34.18-1.753.54-.413.36-.62.848-.62 1.464 0 .457.15.826.449 1.107.298.281.672.501 1.12.66.448.157 1.086.333 1.912.527 1.09.246 1.973.5 2.65.764a4.293 4.293 0 0 1 1.74 1.253c.483.57.725 1.349.725 2.333 0 1.213-.462 2.197-1.384 2.953-.923.756-2.167 1.134-3.731 1.134-1.81 0-3.274-.422-4.39-1.266-1.116-.843-1.789-2.021-2.017-3.533h2.926c.088.791.44 1.433 1.055 1.925s1.424.738 2.426.738c.72 0 1.287-.189 1.7-.567.413-.378.62-.857.62-1.437 0-.51-.158-.914-.475-1.213a3.292 3.292 0 0 0-1.186-.698c-.475-.167-1.125-.339-1.951-.514-1.055-.246-1.912-.493-2.57-.739a4.007 4.007 0 0 1-1.688-1.2c-.466-.553-.7-1.304-.7-2.254 0-1.23.462-2.228 1.385-2.992.923-.765 2.202-1.147 3.836-1.147zm16.22 12.102v2.61H54.28c-1.547 0-2.72-.373-3.52-1.12-.8-.747-1.2-1.99-1.2-3.731v-7.12H47.48V6.006h2.083V2.393h3.032v3.612H56.1v2.558h-3.507v7.172c0 .826.154 1.397.461 1.713.308.317.848.475 1.622.475h1.45zm10.92-12.102c1.265 0 2.395.299 3.388.896.993.598 1.77 1.46 2.333 2.584.563 1.125.844 2.443.844 3.955 0 1.53-.281 2.857-.844 3.982-.562 1.124-1.34 1.986-2.333 2.583-.993.598-2.123.897-3.388.897-1.319 0-2.444-.325-3.375-.976a5.102 5.102 0 0 1-1.951-2.584v3.375h-3.006V1.022h3.006V9.38a5.102 5.102 0 0 1 1.95-2.584c.932-.65 2.057-.975 3.376-.975zm-.923 2.636c-.844 0-1.6.198-2.268.594-.668.395-1.195.958-1.582 1.687-.386.73-.58 1.569-.58 2.518 0 .967.194 1.81.58 2.531.387.721.914 1.28 1.582 1.675s1.424.593 2.268.593c1.336 0 2.408-.426 3.217-1.279.808-.852 1.212-2.026 1.212-3.52 0-1.476-.404-2.645-1.212-3.507-.809-.86-1.881-1.292-3.217-1.292zm9.733-6.67c0-.51.176-.932.527-1.266.352-.334.818-.5 1.398-.5s1.05.166 1.41.5c.36.334.541.756.541 1.266s-.18.922-.54 1.239c-.36.316-.831.474-1.411.474-.58 0-1.046-.158-1.398-.474-.351-.317-.527-.73-.527-1.24zm3.428 4.218v14.528h-3.006V6.005h3.006zm11.526-.237c1.687 0 3.041.545 4.06 1.635 1.02 1.09 1.53 2.645 1.53 4.667v8.463h-3.006v-8.147c0-1.3-.334-2.307-1.002-3.019-.668-.712-1.582-1.068-2.742-1.068-1.195 0-2.153.383-2.874 1.147-.72.765-1.081 1.885-1.081 3.362v7.725H82.69V6.005h3.006v3.19c.387-1.09 1.037-1.933 1.951-2.53.914-.598 1.969-.897 3.164-.897zM102.604 17.678V21h-3.401v-3.322z"/>
        <path d="M76.982 23.196l-1.284 3.792-1.092-3.792h-1.68L74.81 29.1h1.62l1.356-4.032 1.38 4.032h1.596l1.848-5.904h-1.584L79.934 27l-1.272-3.804h-1.68zm9.014 4.632c-.78 0-1.5-.576-1.5-1.68s.72-1.68 1.5-1.68 1.5.576 1.5 1.68-.72 1.68-1.5 1.68zm0-4.812c-1.776 0-3.096 1.308-3.096 3.132 0 1.812 1.32 3.132 3.096 3.132s3.096-1.32 3.096-3.132c0-1.824-1.32-3.132-3.096-3.132zm7.85 1.764v-1.608l-.186-.017a2.437 2.437 0 0 0-.186-.007c-.504 0-1.32.144-1.68.924v-.876h-1.548V29.1h1.596v-2.7c0-1.272.708-1.668 1.524-1.668.156 0 .324.012.48.048zm6.746-1.584l-2.364 2.484 2.412 3.42h-1.956l-1.56-2.256-.66.696v1.56h-1.596v-8.567l1.533-.111.063 4.97 2.04-2.196h2.088z"/>
    </g>
</svg>
