<svg xmlns="http://www.w3.org/2000/svg" xmlns:xlink="http://www.w3.org/1999/xlink" width="850" height="654" viewBox="0 0 850 654">
    <defs>
        <path id="a" d="M23.54 0h744.92c13 0 23.54 10.54 23.54 23.54v549.32c0 13-10.54 23.54-23.54 23.54H23.54c-13 0-23.54-10.54-23.54-23.54V23.54C0 10.54 10.54 0 23.54 0z"/>
        <filter id="b" width="112.8%" height="116.9%" x="-5%" y="-6.1%" filterUnits="objectBoundingBox">
            <feOffset dx="11" dy="14" in="SourceAlpha" result="shadowOffsetOuter1"/>
            <feGaussianBlur in="shadowOffsetOuter1" result="shadowBlurOuter1" stdDeviation="14.5"/>
            <feColorMatrix in="shadowBlurOuter1" values="0 0 0 0 0 0 0 0 0 0 0 0 0 0 0 0 0 0 0.480497056 0"/>
        </filter>
        <path id="d" d="M297.562 0c3.358 0 6.08 2.714 6.08 6.062v3.789c0 5.022 4.084 9.093 9.12 9.093h152.772c5.037 0 9.12-4.071 9.12-9.093V6.062c0-3.348 2.723-6.062 6.081-6.062h273.203c8.47 0 11.542.88 14.638 2.53a17.24 17.24 0 0 1 7.183 7.161c1.656 3.088 2.538 6.15 2.538 14.594V557.68c0 8.445-.882 11.507-2.538 14.594a17.24 17.24 0 0 1-7.183 7.161c-3.096 1.651-6.168 2.53-14.638 2.53H24.358c-8.47 0-11.54-.879-14.637-2.53a17.24 17.24 0 0 1-7.183-7.16C.882 569.185 0 566.123 0 557.678V24.285C0 15.841.882 12.78 2.538 9.691a17.24 17.24 0 0 1 7.183-7.16C12.817.878 15.889 0 24.359 0h273.203z"/>
        <linearGradient id="f" x1="100%" x2="1.432%" y1="50%" y2="50%">
            <stop offset="0%" stop-opacity="0"/>
            <stop offset="100%" stop-color="#FFF"/>
        </linearGradient>
        <linearGradient id="g" x1="0%" x2="96.357%" y1="55.406%" y2="55.406%">
            <stop offset="0%" stop-opacity="0"/>
            <stop offset="71.493%" stop-opacity=".286"/>
            <stop offset="100%" stop-color="#141414" stop-opacity=".716"/>
        </linearGradient>
    </defs>
    <g fill="none" fill-rule="evenodd" transform="translate(18 15)">
        <mask id="c" fill="#fff">
            <use xlink:href="#a"/>
        </mask>
        <g fill-rule="nonzero">
            <use fill="#000" filter="url(#b)" xlink:href="#a"/>
            <use fill="#1D212B" xlink:href="#a"/>
        </g>
        <path fill="#FFF" fill-rule="nonzero" d="M62.4 0v596.4h-9.6V0h9.6zm676.8 0v596.4h-9.6V0h9.6z" mask="url(#c)" opacity=".082"/>
        <g mask="url(#c)">
            <g transform="translate(7.2 7.2)">
                <mask id="e" fill="#fff">
                    <use xlink:href="#d"/>
                </mask>
                <use fill="#1D212B" fill-rule="nonzero" stroke="#4F4F4F" stroke-opacity=".481" stroke-width=".5" xlink:href="#d"/>
                <path fill="#121212" d="M268.3 272.417h91.207v12.882H268.3zM375.847 272.417h91.207v12.882h-91.207zM268.3 236.423h460.594v25.385H268.3zM0 0h222.316v581.965H0zM268.3 70.472h460.594v100.404H268.3zM268.3 319.398h460.594v100.404H268.3zM268.3 184.137h109.828v23.112H268.3zM268.3 453.902h109.828v23.112H268.3zM400.929 453.902h109.828v23.112H400.929z" mask="url(#e)" opacity=".16"/>
                <path fill="#121212" d="M268.3 723.667h109.828v23.112H268.3z" mask="url(#e)"/>
            </g>
        </g>
        <path fill="url(#f)" fill-rule="nonzero" d="M0 0h28.8v596.4H0z" mask="url(#c)" opacity=".122"/>
        <path fill="url(#g)" fill-rule="nonzero" d="M763.2 0H792v596.4h-28.8z" mask="url(#c)" opacity=".637"/>
        <circle cx="453.6" cy="13.2" r="4.8" fill="#272727" fill-rule="nonzero" mask="url(#c)"/>
        <rect width="103.2" height="4.8" x="336" y="10.8" fill="#272727" fill-rule="nonzero" mask="url(#c)" rx="2.4"/>
    </g>
</svg>
