<svg xmlns="http://www.w3.org/2000/svg" xmlns:xlink="http://www.w3.org/1999/xlink" width="490" height="373" viewBox="0 0 490 373">
    <defs>
        <circle id="a" cx="44.3" cy="44.1" r="43.9"/>
        <circle id="c" cx="44.3" cy="44.1" r="43.9"/>
        <circle id="d" cx="44.3" cy="44.1" r="43.9"/>
    </defs>
    <g fill="none" fill-rule="evenodd">
        <g fill="#E9EDF1" fill-rule="nonzero" opacity=".36">
            <path d="M12.409 108.72c-13.234 31.362-16.844 64.16-4.094 90.593 26.497 54.931 133.27 114.105 216.482 153.418 42.026 19.89 89.565 25.02 134.964 14.563L12.41 108.721zM487.023 261.966l-40.03-29.083c-1.91-1.388-2.327-4.072-.93-5.994 1.396-1.923 4.078-2.356 5.989-.967l6.92 5.027c-1.911-1.388-2.328-4.072-.931-5.994 1.396-1.923 4.078-2.356 5.989-.968l-4.945-3.592c-1.911-1.388-2.328-4.072-.931-5.995 1.397-1.922 4.078-2.355 5.989-.967l20.9 15.185c-3.062-5.536-7.36-11.016-13.013-16.36-51.618-48.752-75.496-58.66-86.32-58.85-13.34-.254-26.517-2.884-38.661-8.362-40.45-18.256-112.56-57.238-158.398-119.405-22.787-30.907-56.325-31.03-88.77-14.11L479.31 287.2c5.1-8.062 8.783-16.25 10.586-24.455a4.238 4.238 0 0 1-2.873-.78zM50.028 51.246a215.815 215.815 0 0 0-32.067 47.41l342.477 268.348a203.156 203.156 0 0 0 51.374-19.312L50.028 51.246zm115.006 134.909l-6.935-5.04c1.919 1.395 2.382 4.03 1.033 5.887-1.349 1.856-3.998 2.23-5.917.836l-40.203-29.21c-1.92-1.394-2.382-4.029-1.033-5.885 1.348-1.856 3.998-2.23 5.917-.836l6.95 5.049c-1.92-1.394-2.382-4.03-1.033-5.886 1.348-1.856 3.997-2.23 5.917-.836l-4.967-3.608c-1.919-1.395-2.381-4.03-1.033-5.886 1.349-1.856 3.998-2.23 5.917-.836l40.203 29.209c1.92 1.394 2.382 4.03 1.033 5.886-1.348 1.856-3.997 2.23-5.917.836l4.952 3.598c1.92 1.394 2.382 4.03 1.033 5.885-1.348 1.857-3.997 2.231-5.917.837z"/>
            <path d="M480.07 286.623L89.532 17.023C76.22 25.527 63.355 36.73 51.798 49.63l386.28 280.648a199.353 199.353 0 0 0 23.78-20.984c7.089-7.362 13.318-14.96 18.212-22.671zM142.66 88.015l-6.942-5.043c1.921 1.395 2.395 4.018 1.058 5.858-1.337 1.84-3.977 2.2-5.898.804L90.64 60.4c-1.92-1.395-2.394-4.018-1.058-5.858 1.337-1.84 3.978-2.2 5.899-.804l6.955 5.054c-1.92-1.396-2.394-4.019-1.057-5.859 1.337-1.84 3.977-2.2 5.898-.804l-4.97-3.611c-1.921-1.396-2.395-4.019-1.058-5.858 1.337-1.84 3.977-2.2 5.898-.805l40.237 29.234c1.92 1.395 2.394 4.018 1.057 5.858-1.336 1.84-3.977 2.2-5.898.804l4.956 3.601c1.921 1.396 2.395 4.018 1.058 5.858-1.337 1.84-3.978 2.2-5.898.805z"/>
        </g>
        <g transform="translate(166 143)">
            <path stroke="#2B3548" stroke-width="2" d="M46 132.9c-1.4.3-2.8.4-4.2.5-.6 0-1.2.1-1.8.1"/>
            <path fill="#2E3849" stroke="#2B3548" stroke-width="2" d="M21.4 129c-18.2-9.9-24.9-32.7-15-50.9 9.9-18.2 32.7-24.9 50.9-15 18.2 9.9 24.9 32.7 15 50.9-4.5 8.2-11.6 14.1-19.7 17.2"/>
            <path fill="#5A6377" stroke="#2B3548" stroke-width="4" d="M105.6 16.4L94.3 27.7c-2.3 2.3-6.1 2.3-8.5 0L80.1 22c-2.3-2.3-2.3-6.1 0-8.5L91.4 2.2c2.3-2.3 6.1-2.3 8.5 0l5.7 5.7c2.3 2.3 2.3 6.1 0 8.5z"/>
            <circle cx="53.3" cy="58.1" r="52.5" fill="#5A6377" stroke="#2B3548" stroke-width="4"/>
            <g transform="translate(9 14)">
                <mask id="b" fill="#fff">
                    <use xlink:href="#a"/>
                </mask>
                <circle cx="44.3" cy="44.1" r="42.5" fill="#545BFF" stroke="#2B3548" stroke-width="2" mask="url(#b)"/>
                <path fill="#E9EDF1" stroke="#2B3548" stroke-width="2" d="M71.4 19.7c-5.2 9.7 13.5 14.1 6.8 26.4-6.9 12.7-32.5 10.1-37 18.5-2.6 4.8.1 11.3 8.9 15.5 16.8 8.1 37.3 1.2 46.4-15.5 9.2-17 4.1-37.4-12.4-47.2-.1.1-8.7-5.2-12.7 2.3z" mask="url(#b)"/>
            </g>
            <g transform="translate(9 14)">
                <mask id="e" fill="#fff">
                    <use xlink:href="#d"/>
                </mask>
                <circle cx="45" cy="44.1" r="42.6" stroke="#2B3548" stroke-width="2.03" mask="url(#e)"/>
            </g>
        </g>
    </g>
</svg>
